<mxfile host="app.diagrams.net" modified="2023-04-27T09:39:00.773Z" agent="Mozilla/5.0 (Windows NT 10.0; Win64; x64) AppleWebKit/537.36 (KHTML, like Gecko) Chrome/112.0.0.0 Safari/537.36" etag="mjAY6GfP0925IMQi9aVk" version="21.2.3" type="device">
  <diagram name="Seite-1" id="hRH0_PEPNg5QHnoSs5FG">
    <mxGraphModel dx="2625" dy="1468" grid="1" gridSize="10" guides="1" tooltips="1" connect="1" arrows="1" fold="1" page="1" pageScale="1" pageWidth="827" pageHeight="1169" math="0" shadow="0">
      <root>
        <mxCell id="0" />
        <mxCell id="1" parent="0" />
        <mxCell id="A72RqLyeRUDhkrOtJt1O-5" value="Schülerfenster" style="swimlane;whiteSpace=wrap;html=1;" vertex="1" parent="1">
          <mxGeometry x="30" y="60" width="530" height="310" as="geometry" />
        </mxCell>
        <mxCell id="A72RqLyeRUDhkrOtJt1O-8" value="Name, Vorname&lt;br&gt;Schmitt, Tom Luca" style="rounded=0;whiteSpace=wrap;html=1;align=center;" vertex="1" parent="A72RqLyeRUDhkrOtJt1O-5">
          <mxGeometry y="25" width="190" height="60" as="geometry" />
        </mxCell>
        <mxCell id="A72RqLyeRUDhkrOtJt1O-10" value="Klasse&lt;br&gt;13" style="rounded=0;whiteSpace=wrap;html=1;align=center;" vertex="1" parent="A72RqLyeRUDhkrOtJt1O-5">
          <mxGeometry x="190" y="25" width="70" height="60" as="geometry" />
        </mxCell>
        <mxCell id="A72RqLyeRUDhkrOtJt1O-11" value="E-Mail&lt;br&gt;tom_luca.Schmitt@pprobe.com" style="rounded=0;whiteSpace=wrap;html=1;align=center;" vertex="1" parent="A72RqLyeRUDhkrOtJt1O-5">
          <mxGeometry x="260" y="25" width="270" height="60" as="geometry" />
        </mxCell>
        <mxCell id="A72RqLyeRUDhkrOtJt1O-13" value="Dropdown" style="shape=table;startSize=30;container=1;collapsible=0;childLayout=tableLayout;fixedRows=1;rowLines=0;fontStyle=0;strokeColor=default;fontSize=9;" vertex="1" parent="A72RqLyeRUDhkrOtJt1O-5">
          <mxGeometry x="60" y="110" width="140" height="160" as="geometry" />
        </mxCell>
        <mxCell id="A72RqLyeRUDhkrOtJt1O-14" value="" style="shape=tableRow;horizontal=0;startSize=0;swimlaneHead=0;swimlaneBody=0;top=0;left=0;bottom=0;right=0;collapsible=0;dropTarget=0;fillColor=none;points=[[0,0.5],[1,0.5]];portConstraint=eastwest;strokeColor=inherit;fontSize=16;" vertex="1" parent="A72RqLyeRUDhkrOtJt1O-13">
          <mxGeometry y="30" width="140" height="45" as="geometry" />
        </mxCell>
        <mxCell id="A72RqLyeRUDhkrOtJt1O-15" value="1" style="shape=partialRectangle;html=1;whiteSpace=wrap;connectable=0;fillColor=none;top=0;left=0;bottom=0;right=0;overflow=hidden;pointerEvents=1;strokeColor=inherit;fontSize=16;" vertex="1" parent="A72RqLyeRUDhkrOtJt1O-14">
          <mxGeometry width="31" height="45" as="geometry">
            <mxRectangle width="31" height="45" as="alternateBounds" />
          </mxGeometry>
        </mxCell>
        <mxCell id="A72RqLyeRUDhkrOtJt1O-16" value="&lt;font style=&quot;font-size: 8px;&quot;&gt;Deutsch&lt;/font&gt;" style="shape=partialRectangle;html=1;whiteSpace=wrap;connectable=0;fillColor=none;top=0;left=0;bottom=0;right=0;align=left;spacingLeft=6;overflow=hidden;strokeColor=inherit;fontSize=16;" vertex="1" parent="A72RqLyeRUDhkrOtJt1O-14">
          <mxGeometry x="31" width="109" height="45" as="geometry">
            <mxRectangle width="109" height="45" as="alternateBounds" />
          </mxGeometry>
        </mxCell>
        <mxCell id="A72RqLyeRUDhkrOtJt1O-17" value="" style="shape=tableRow;horizontal=0;startSize=0;swimlaneHead=0;swimlaneBody=0;top=0;left=0;bottom=0;right=0;collapsible=0;dropTarget=0;fillColor=none;points=[[0,0.5],[1,0.5]];portConstraint=eastwest;strokeColor=inherit;fontSize=16;" vertex="1" parent="A72RqLyeRUDhkrOtJt1O-13">
          <mxGeometry y="75" width="140" height="45" as="geometry" />
        </mxCell>
        <mxCell id="A72RqLyeRUDhkrOtJt1O-18" value="2" style="shape=partialRectangle;html=1;whiteSpace=wrap;connectable=0;fillColor=none;top=0;left=0;bottom=0;right=0;overflow=hidden;strokeColor=inherit;fontSize=16;" vertex="1" parent="A72RqLyeRUDhkrOtJt1O-17">
          <mxGeometry width="31" height="45" as="geometry">
            <mxRectangle width="31" height="45" as="alternateBounds" />
          </mxGeometry>
        </mxCell>
        <mxCell id="A72RqLyeRUDhkrOtJt1O-19" value="&lt;font style=&quot;font-size: 8px;&quot;&gt;Mathe&lt;/font&gt;" style="shape=partialRectangle;html=1;whiteSpace=wrap;connectable=0;fillColor=none;top=0;left=0;bottom=0;right=0;align=left;spacingLeft=6;overflow=hidden;strokeColor=inherit;fontSize=16;" vertex="1" parent="A72RqLyeRUDhkrOtJt1O-17">
          <mxGeometry x="31" width="109" height="45" as="geometry">
            <mxRectangle width="109" height="45" as="alternateBounds" />
          </mxGeometry>
        </mxCell>
        <mxCell id="A72RqLyeRUDhkrOtJt1O-20" value="" style="shape=tableRow;horizontal=0;startSize=0;swimlaneHead=0;swimlaneBody=0;top=0;left=0;bottom=0;right=0;collapsible=0;dropTarget=0;fillColor=none;points=[[0,0.5],[1,0.5]];portConstraint=eastwest;strokeColor=inherit;fontSize=16;" vertex="1" parent="A72RqLyeRUDhkrOtJt1O-13">
          <mxGeometry y="120" width="140" height="40" as="geometry" />
        </mxCell>
        <mxCell id="A72RqLyeRUDhkrOtJt1O-21" value="3" style="shape=partialRectangle;html=1;whiteSpace=wrap;connectable=0;fillColor=none;top=0;left=0;bottom=0;right=0;overflow=hidden;strokeColor=inherit;fontSize=16;" vertex="1" parent="A72RqLyeRUDhkrOtJt1O-20">
          <mxGeometry width="31" height="40" as="geometry">
            <mxRectangle width="31" height="40" as="alternateBounds" />
          </mxGeometry>
        </mxCell>
        <mxCell id="A72RqLyeRUDhkrOtJt1O-22" value="&lt;font style=&quot;font-size: 8px;&quot;&gt;Englisch&lt;/font&gt;" style="shape=partialRectangle;html=1;whiteSpace=wrap;connectable=0;fillColor=none;top=0;left=0;bottom=0;right=0;align=left;spacingLeft=6;overflow=hidden;strokeColor=inherit;fontSize=16;" vertex="1" parent="A72RqLyeRUDhkrOtJt1O-20">
          <mxGeometry x="31" width="109" height="40" as="geometry">
            <mxRectangle width="109" height="40" as="alternateBounds" />
          </mxGeometry>
        </mxCell>
        <mxCell id="A72RqLyeRUDhkrOtJt1O-23" value="Hinzufügen" style="shape=ext;double=1;rounded=0;whiteSpace=wrap;html=1;" vertex="1" parent="A72RqLyeRUDhkrOtJt1O-5">
          <mxGeometry x="390" y="120" width="130" height="40" as="geometry" />
        </mxCell>
        <mxCell id="A72RqLyeRUDhkrOtJt1O-24" value="(Alle)&lt;br&gt;Anzeigen" style="shape=ext;double=1;rounded=0;whiteSpace=wrap;html=1;" vertex="1" parent="A72RqLyeRUDhkrOtJt1O-5">
          <mxGeometry x="400" y="270" width="110" height="30" as="geometry" />
        </mxCell>
        <mxCell id="A72RqLyeRUDhkrOtJt1O-25" value="Anzeigen" style="shape=ext;double=1;rounded=0;whiteSpace=wrap;html=1;" vertex="1" parent="A72RqLyeRUDhkrOtJt1O-5">
          <mxGeometry x="60" y="275" width="110" height="25" as="geometry" />
        </mxCell>
        <mxCell id="A72RqLyeRUDhkrOtJt1O-12" value="Fach:" style="rounded=0;whiteSpace=wrap;html=1;" vertex="1" parent="A72RqLyeRUDhkrOtJt1O-5">
          <mxGeometry y="115" width="50" height="50" as="geometry" />
        </mxCell>
        <mxCell id="A72RqLyeRUDhkrOtJt1O-31" value="Notenfenster (Fach)&lt;br&gt;&lt;span style=&quot;font-weight: normal;&quot;&gt;(Tom Luca Schmitt)&lt;/span&gt;" style="swimlane;whiteSpace=wrap;html=1;startSize=30;" vertex="1" parent="1">
          <mxGeometry x="710" y="60" width="590" height="320" as="geometry" />
        </mxCell>
        <mxCell id="A72RqLyeRUDhkrOtJt1O-32" value="&lt;b&gt;&lt;font style=&quot;font-size: 19px;&quot;&gt;Note:&lt;/font&gt;&lt;/b&gt;" style="rounded=0;whiteSpace=wrap;html=1;" vertex="1" parent="A72RqLyeRUDhkrOtJt1O-31">
          <mxGeometry y="60" width="120" height="60" as="geometry" />
        </mxCell>
        <mxCell id="A72RqLyeRUDhkrOtJt1O-33" value="*Noteneingabe*" style="rounded=1;whiteSpace=wrap;html=1;" vertex="1" parent="A72RqLyeRUDhkrOtJt1O-31">
          <mxGeometry x="139" y="60" width="120" height="60" as="geometry" />
        </mxCell>
        <mxCell id="A72RqLyeRUDhkrOtJt1O-34" value="Anzeigen" style="shape=ext;double=1;rounded=0;whiteSpace=wrap;html=1;" vertex="1" parent="A72RqLyeRUDhkrOtJt1O-31">
          <mxGeometry x="200" y="270" width="130" height="40" as="geometry" />
        </mxCell>
        <mxCell id="A72RqLyeRUDhkrOtJt1O-35" value="TestForm" style="rounded=0;whiteSpace=wrap;html=1;" vertex="1" parent="A72RqLyeRUDhkrOtJt1O-31">
          <mxGeometry x="290" y="60" width="120" height="60" as="geometry" />
        </mxCell>
        <mxCell id="A72RqLyeRUDhkrOtJt1O-36" value="Dropdown" style="shape=table;startSize=30;container=1;collapsible=0;childLayout=tableLayout;fixedRows=1;rowLines=0;fontStyle=0;strokeColor=default;fontSize=16;" vertex="1" parent="A72RqLyeRUDhkrOtJt1O-31">
          <mxGeometry x="410" y="60" width="180" height="120" as="geometry" />
        </mxCell>
        <mxCell id="A72RqLyeRUDhkrOtJt1O-37" value="" style="shape=tableRow;horizontal=0;startSize=0;swimlaneHead=0;swimlaneBody=0;top=0;left=0;bottom=0;right=0;collapsible=0;dropTarget=0;fillColor=none;points=[[0,0.5],[1,0.5]];portConstraint=eastwest;strokeColor=inherit;fontSize=16;" vertex="1" parent="A72RqLyeRUDhkrOtJt1O-36">
          <mxGeometry y="30" width="180" height="30" as="geometry" />
        </mxCell>
        <mxCell id="A72RqLyeRUDhkrOtJt1O-38" value="1" style="shape=partialRectangle;html=1;whiteSpace=wrap;connectable=0;fillColor=none;top=0;left=0;bottom=0;right=0;overflow=hidden;pointerEvents=1;strokeColor=inherit;fontSize=16;" vertex="1" parent="A72RqLyeRUDhkrOtJt1O-37">
          <mxGeometry width="40" height="30" as="geometry">
            <mxRectangle width="40" height="30" as="alternateBounds" />
          </mxGeometry>
        </mxCell>
        <mxCell id="A72RqLyeRUDhkrOtJt1O-39" value="Klausur 50%" style="shape=partialRectangle;html=1;whiteSpace=wrap;connectable=0;fillColor=none;top=0;left=0;bottom=0;right=0;align=left;spacingLeft=6;overflow=hidden;strokeColor=inherit;fontSize=16;" vertex="1" parent="A72RqLyeRUDhkrOtJt1O-37">
          <mxGeometry x="40" width="140" height="30" as="geometry">
            <mxRectangle width="140" height="30" as="alternateBounds" />
          </mxGeometry>
        </mxCell>
        <mxCell id="A72RqLyeRUDhkrOtJt1O-40" value="" style="shape=tableRow;horizontal=0;startSize=0;swimlaneHead=0;swimlaneBody=0;top=0;left=0;bottom=0;right=0;collapsible=0;dropTarget=0;fillColor=none;points=[[0,0.5],[1,0.5]];portConstraint=eastwest;strokeColor=inherit;fontSize=16;" vertex="1" parent="A72RqLyeRUDhkrOtJt1O-36">
          <mxGeometry y="60" width="180" height="30" as="geometry" />
        </mxCell>
        <mxCell id="A72RqLyeRUDhkrOtJt1O-41" value="2" style="shape=partialRectangle;html=1;whiteSpace=wrap;connectable=0;fillColor=none;top=0;left=0;bottom=0;right=0;overflow=hidden;strokeColor=inherit;fontSize=16;" vertex="1" parent="A72RqLyeRUDhkrOtJt1O-40">
          <mxGeometry width="40" height="30" as="geometry">
            <mxRectangle width="40" height="30" as="alternateBounds" />
          </mxGeometry>
        </mxCell>
        <mxCell id="A72RqLyeRUDhkrOtJt1O-42" value="EPO 30%" style="shape=partialRectangle;html=1;whiteSpace=wrap;connectable=0;fillColor=none;top=0;left=0;bottom=0;right=0;align=left;spacingLeft=6;overflow=hidden;strokeColor=inherit;fontSize=16;" vertex="1" parent="A72RqLyeRUDhkrOtJt1O-40">
          <mxGeometry x="40" width="140" height="30" as="geometry">
            <mxRectangle width="140" height="30" as="alternateBounds" />
          </mxGeometry>
        </mxCell>
        <mxCell id="A72RqLyeRUDhkrOtJt1O-43" value="" style="shape=tableRow;horizontal=0;startSize=0;swimlaneHead=0;swimlaneBody=0;top=0;left=0;bottom=0;right=0;collapsible=0;dropTarget=0;fillColor=none;points=[[0,0.5],[1,0.5]];portConstraint=eastwest;strokeColor=inherit;fontSize=16;" vertex="1" parent="A72RqLyeRUDhkrOtJt1O-36">
          <mxGeometry y="90" width="180" height="30" as="geometry" />
        </mxCell>
        <mxCell id="A72RqLyeRUDhkrOtJt1O-44" value="3" style="shape=partialRectangle;html=1;whiteSpace=wrap;connectable=0;fillColor=none;top=0;left=0;bottom=0;right=0;overflow=hidden;strokeColor=inherit;fontSize=16;" vertex="1" parent="A72RqLyeRUDhkrOtJt1O-43">
          <mxGeometry width="40" height="30" as="geometry">
            <mxRectangle width="40" height="30" as="alternateBounds" />
          </mxGeometry>
        </mxCell>
        <mxCell id="A72RqLyeRUDhkrOtJt1O-45" value="HÜ 20%" style="shape=partialRectangle;html=1;whiteSpace=wrap;connectable=0;fillColor=none;top=0;left=0;bottom=0;right=0;align=left;spacingLeft=6;overflow=hidden;strokeColor=inherit;fontSize=16;" vertex="1" parent="A72RqLyeRUDhkrOtJt1O-43">
          <mxGeometry x="40" width="140" height="30" as="geometry">
            <mxRectangle width="140" height="30" as="alternateBounds" />
          </mxGeometry>
        </mxCell>
        <mxCell id="A72RqLyeRUDhkrOtJt1O-46" value="Fach spezifische Notenübersicht für aktuelles Jahr&lt;br&gt;(berarbeitbare Liste)&lt;br&gt;Klausuren| HÜs | Epos&lt;br&gt;2,2,3,1 | 1,3,2,4 | 2,2,2,2" style="rounded=0;whiteSpace=wrap;html=1;" vertex="1" parent="A72RqLyeRUDhkrOtJt1O-31">
          <mxGeometry x="90" y="140" width="290" height="60" as="geometry" />
        </mxCell>
        <mxCell id="A72RqLyeRUDhkrOtJt1O-47" value="Notenhistorie&lt;br&gt;&lt;span style=&quot;font-weight: normal;&quot;&gt;(Fach)&lt;/span&gt;" style="swimlane;whiteSpace=wrap;html=1;startSize=30;" vertex="1" parent="1">
          <mxGeometry x="90" y="480" width="400" height="310" as="geometry" />
        </mxCell>
        <mxCell id="A72RqLyeRUDhkrOtJt1O-49" value="Einzelnoten" style="rounded=0;whiteSpace=wrap;html=1;" vertex="1" parent="A72RqLyeRUDhkrOtJt1O-47">
          <mxGeometry y="30" width="300" height="20" as="geometry" />
        </mxCell>
        <mxCell id="A72RqLyeRUDhkrOtJt1O-50" value="" style="rounded=0;whiteSpace=wrap;html=1;" vertex="1" parent="A72RqLyeRUDhkrOtJt1O-47">
          <mxGeometry y="70" width="100" height="240" as="geometry" />
        </mxCell>
        <mxCell id="A72RqLyeRUDhkrOtJt1O-51" value="" style="rounded=0;whiteSpace=wrap;html=1;" vertex="1" parent="A72RqLyeRUDhkrOtJt1O-47">
          <mxGeometry x="100" y="70" width="100" height="240" as="geometry" />
        </mxCell>
        <mxCell id="A72RqLyeRUDhkrOtJt1O-52" value="" style="rounded=0;whiteSpace=wrap;html=1;" vertex="1" parent="A72RqLyeRUDhkrOtJt1O-47">
          <mxGeometry x="200" y="70" width="100" height="240" as="geometry" />
        </mxCell>
        <mxCell id="A72RqLyeRUDhkrOtJt1O-59" value="" style="rounded=0;whiteSpace=wrap;html=1;" vertex="1" parent="A72RqLyeRUDhkrOtJt1O-47">
          <mxGeometry x="300" y="70" width="100" height="240" as="geometry" />
        </mxCell>
        <mxCell id="A72RqLyeRUDhkrOtJt1O-60" value="Klausuren" style="rounded=0;whiteSpace=wrap;html=1;" vertex="1" parent="A72RqLyeRUDhkrOtJt1O-47">
          <mxGeometry y="50" width="100" height="20" as="geometry" />
        </mxCell>
        <mxCell id="A72RqLyeRUDhkrOtJt1O-61" value="Epos" style="rounded=0;whiteSpace=wrap;html=1;" vertex="1" parent="A72RqLyeRUDhkrOtJt1O-47">
          <mxGeometry x="100" y="50" width="100" height="20" as="geometry" />
        </mxCell>
        <mxCell id="A72RqLyeRUDhkrOtJt1O-62" value="HÜs" style="rounded=0;whiteSpace=wrap;html=1;" vertex="1" parent="A72RqLyeRUDhkrOtJt1O-47">
          <mxGeometry x="200" y="50" width="100" height="20" as="geometry" />
        </mxCell>
        <mxCell id="A72RqLyeRUDhkrOtJt1O-63" value="Durchschnitt" style="rounded=0;whiteSpace=wrap;html=1;" vertex="1" parent="A72RqLyeRUDhkrOtJt1O-47">
          <mxGeometry x="300" y="30" width="100" height="20" as="geometry" />
        </mxCell>
        <mxCell id="A72RqLyeRUDhkrOtJt1O-78" value="Notenhistorie&lt;br&gt;&lt;span style=&quot;font-weight: normal;&quot;&gt;(Tom Luca Schmitt)&lt;/span&gt;" style="swimlane;whiteSpace=wrap;html=1;startSize=30;" vertex="1" parent="1">
          <mxGeometry x="720" y="480" width="590" height="310" as="geometry" />
        </mxCell>
        <mxCell id="A72RqLyeRUDhkrOtJt1O-79" value="Fach&lt;br&gt;Deutsch&lt;br&gt;Mathe&lt;br&gt;Englisch&lt;br&gt;..." style="rounded=0;whiteSpace=wrap;html=1;" vertex="1" parent="A72RqLyeRUDhkrOtJt1O-78">
          <mxGeometry y="30" width="190" height="280" as="geometry" />
        </mxCell>
        <mxCell id="A72RqLyeRUDhkrOtJt1O-80" value="Einzelnoten" style="rounded=0;whiteSpace=wrap;html=1;" vertex="1" parent="A72RqLyeRUDhkrOtJt1O-78">
          <mxGeometry x="190" y="30" width="300" height="20" as="geometry" />
        </mxCell>
        <mxCell id="A72RqLyeRUDhkrOtJt1O-81" value="" style="rounded=0;whiteSpace=wrap;html=1;" vertex="1" parent="A72RqLyeRUDhkrOtJt1O-78">
          <mxGeometry x="190" y="70" width="100" height="240" as="geometry" />
        </mxCell>
        <mxCell id="A72RqLyeRUDhkrOtJt1O-82" value="" style="rounded=0;whiteSpace=wrap;html=1;" vertex="1" parent="A72RqLyeRUDhkrOtJt1O-78">
          <mxGeometry x="290" y="70" width="100" height="240" as="geometry" />
        </mxCell>
        <mxCell id="A72RqLyeRUDhkrOtJt1O-83" value="" style="rounded=0;whiteSpace=wrap;html=1;" vertex="1" parent="A72RqLyeRUDhkrOtJt1O-78">
          <mxGeometry x="390" y="70" width="100" height="240" as="geometry" />
        </mxCell>
        <mxCell id="A72RqLyeRUDhkrOtJt1O-84" value="" style="rounded=0;whiteSpace=wrap;html=1;" vertex="1" parent="A72RqLyeRUDhkrOtJt1O-78">
          <mxGeometry x="490" y="70" width="100" height="240" as="geometry" />
        </mxCell>
        <mxCell id="A72RqLyeRUDhkrOtJt1O-85" value="Klausuren" style="rounded=0;whiteSpace=wrap;html=1;" vertex="1" parent="A72RqLyeRUDhkrOtJt1O-78">
          <mxGeometry x="190" y="50" width="100" height="20" as="geometry" />
        </mxCell>
        <mxCell id="A72RqLyeRUDhkrOtJt1O-86" value="Epos" style="rounded=0;whiteSpace=wrap;html=1;" vertex="1" parent="A72RqLyeRUDhkrOtJt1O-78">
          <mxGeometry x="290" y="50" width="100" height="20" as="geometry" />
        </mxCell>
        <mxCell id="A72RqLyeRUDhkrOtJt1O-87" value="HÜs" style="rounded=0;whiteSpace=wrap;html=1;" vertex="1" parent="A72RqLyeRUDhkrOtJt1O-78">
          <mxGeometry x="390" y="50" width="100" height="20" as="geometry" />
        </mxCell>
        <mxCell id="A72RqLyeRUDhkrOtJt1O-88" value="Durchschnitt" style="rounded=0;whiteSpace=wrap;html=1;" vertex="1" parent="A72RqLyeRUDhkrOtJt1O-78">
          <mxGeometry x="490" y="30" width="100" height="20" as="geometry" />
        </mxCell>
      </root>
    </mxGraphModel>
  </diagram>
</mxfile>
